<?xml version="1.0" standalone="no"?>
<!DOCTYPE svg PUBLIC "-//W3C//DTD SVG 20010904//EN"
 "http://www.w3.org/TR/2001/REC-SVG-20010904/DTD/svg10.dtd">
<svg version="1.0" xmlns="http://www.w3.org/2000/svg"
 width="512.000000pt" height="512.000000pt" viewBox="0 0 512.000000 512.000000"
 preserveAspectRatio="xMidYMid meet">
<g transform="translate(0.000000,512.000000) scale(0.100000,-0.100000)"
 stroke="none">
<path d="M2825 5100 c-360 -59 -674 -195 -943 -407 -99 -79 -280 -265 -353
-363 -360 -482 -487 -1107 -343 -1685 65 -259 185 -513 341 -723 74 -99 296
-321 395 -395 538 -400 1246 -506 1878 -282 183 65 372 166 528 282 100 75
286 256 365 355 382 483 518 1124 368 1743 -120 493 -467 955 -916 1220 -321
189 -649 276 -1027 274 -124 -1 -218 -7 -293 -19z m559 -481 c541 -88 1006
-487 1181 -1012 240 -723 -86 -1502 -772 -1845 -122 -61 -308 -118 -460 -141
-162 -25 -412 -10 -583 34 -488 125 -885 487 -1055 964 -58 163 -85 319 -85
504 0 197 25 343 92 527 175 482 606 856 1108 960 195 40 367 43 574 9z"/>
<path d="M3019 4349 c-476 -37 -885 -352 -1051 -809 -62 -172 -86 -436 -54
-616 52 -303 199 -556 436 -753 l65 -54 6 174 c5 164 7 178 33 236 48 106 144
181 261 202 75 14 753 15 825 1 140 -27 251 -133 279 -268 6 -29 11 -118 11
-198 0 -167 -7 -162 100 -69 211 183 357 438 405 711 21 115 21 323 0 438 -67
382 -318 713 -667 884 -202 99 -414 139 -649 121z m224 -484 c257 -67 432
-326 388 -574 -55 -305 -365 -501 -652 -411 -183 56 -330 227 -359 415 -55
347 285 658 623 570z"/>
<path d="M3034 3571 c-155 -70 -173 -289 -33 -387 35 -24 54 -29 113 -32 90
-4 146 22 193 91 124 184 -71 420 -273 328z"/>
<path d="M2750 2443 c-37 -13 -40 -32 -40 -257 l0 -221 59 -17 c32 -10 101
-25 152 -34 131 -23 380 -14 494 16 44 12 90 24 103 27 l22 5 0 229 c0 224 0
228 -22 243 -19 14 -72 16 -388 15 -201 0 -372 -3 -380 -6z"/>
<path d="M599 1623 c-454 -456 -477 -482 -518 -560 -58 -114 -81 -211 -81
-343 0 -208 65 -365 210 -510 145 -145 302 -210 510 -210 132 0 229 23 343 81
78 41 103 64 561 520 l480 477 -53 29 c-271 146 -527 359 -712 593 -80 100
-172 238 -213 318 -50 97 2 136 -527 -395z"/>
</g>
</svg>
