<?xml version="1.0" standalone="no"?>
<!DOCTYPE svg PUBLIC "-//W3C//DTD SVG 20010904//EN"
 "http://www.w3.org/TR/2001/REC-SVG-20010904/DTD/svg10.dtd">
<svg version="1.0" xmlns="http://www.w3.org/2000/svg"
 width="512.000000pt" height="512.000000pt" viewBox="0 0 512.000000 512.000000"
 preserveAspectRatio="xMidYMid meet">
<g transform="translate(0.000000,512.000000) scale(0.100000,-0.100000)" stroke="none">
<path d="M4456 5109 c-159 -17 -426 -71 -568 -115 -19 -6 -17 -33 9 -139 115
-480 568 -902 1046 -973 41 -7 60 -6 63 2 12 36 57 238 74 336 32 188 42 333
38 565 -3 247 -9 269 -78 310 -32 18 -53 20 -270 21 -129 1 -270 -2 -314 -7z"/>
<path d="M3465 4832 c-699 -327 -1329 -864 -1892 -1613 -146 -195 -433 -623
-433 -647 0 -4 76 -83 170 -177 l169 -169 68 22 c127 40 158 45 263 46 161 1
262 -35 356 -128 139 -140 167 -333 87 -599 l-27 -88 175 -175 c95 -96 177
-174 181 -174 4 0 71 41 150 91 522 333 877 617 1253 1000 404 413 680 810
876 1263 41 93 43 116 11 116 -29 0 -190 45 -267 74 -470 180 -870 629 -989
1111 -15 57 -28 91 -37 92 -8 1 -59 -19 -114 -45z m40 -822 c249 -78 429 -260
506 -510 31 -99 33 -279 5 -388 -64 -252 -274 -462 -531 -533 -111 -31 -269
-31 -378 -1 -258 73 -455 270 -529 527 -18 64 -22 104 -22 200 0 109 3 129 33
215 38 111 65 162 134 247 103 129 250 218 422 259 88 20 270 12 360 -16z"/>
<path d="M3180 3736 c-77 -22 -152 -66 -207 -123 -208 -213 -157 -567 101
-711 71 -40 137 -56 225 -55 130 0 228 40 316 128 287 288 81 780 -325 774
-36 0 -85 -6 -110 -13z"/>
<path d="M1175 3484 c-93 -11 -177 -29 -232 -50 -97 -37 -230 -107 -313 -165
-92 -65 -592 -558 -616 -607 -11 -24 -15 -51 -12 -90 4 -48 10 -60 41 -88 48
-44 93 -51 192 -30 209 46 308 58 420 53 l110 -5 55 96 c133 231 358 574 502
764 32 42 58 81 58 87 0 20 -134 43 -205 35z"/>
<path d="M962 2267 c-13 -23 -71 -133 -128 -244 -88 -170 -104 -209 -104 -248
0 -53 16 -89 57 -127 l28 -26 89 101 c48 56 142 156 207 223 l118 120 -122
122 -122 122 -23 -43z"/>
<path d="M1699 1995 c-81 -20 -162 -59 -235 -110 -99 -71 -414 -415 -576 -630
-165 -218 -298 -445 -298 -507 0 -93 85 -167 177 -154 97 13 400 211 658 429
153 130 409 376 456 437 88 116 136 265 126 389 -5 67 -22 99 -70 135 -34 25
-159 31 -238 11z"/>
<path d="M3340 1284 c-161 -118 -466 -318 -662 -433 l-175 -105 -6 -155 c-3
-86 -15 -223 -27 -304 -22 -142 -22 -150 -5 -193 23 -60 73 -94 138 -94 26 0
60 6 75 14 15 8 147 135 293 283 208 209 279 288 324 357 110 168 172 345 182
512 5 87 -9 194 -26 194 -4 0 -54 -34 -111 -76z"/>
<path d="M1965 1130 c-55 -56 -155 -149 -222 -208 l-122 -107 32 -33 c49 -51
82 -65 146 -60 48 4 86 20 261 113 113 60 217 116 232 125 l27 16 -127 127
-127 127 -100 -100z"/>
</g>
</svg>
