<?xml version="1.0" standalone="no"?>
<!DOCTYPE svg PUBLIC "-//W3C//DTD SVG 20010904//EN"
 "http://www.w3.org/TR/2001/REC-SVG-20010904/DTD/svg10.dtd">
<svg version="1.0" xmlns="http://www.w3.org/2000/svg"
 width="512.000000pt" height="512.000000pt" viewBox="0 0 512.000000 512.000000"
 preserveAspectRatio="xMidYMid meet">
<g transform="translate(0.000000,512.000000) scale(0.100000,-0.100000)" stroke="none">
<path d="M2710 3916 l0 -1206 1206 0 1206 0 -5 213 c-3 131 -11 246 -21 302
-87 479 -287 873 -615 1209 -242 247 -498 417 -814 541 -244 95 -454 135 -744
142 l-213 5 0 -1206z"/>
<path d="M1960 4495 c-335 -47 -640 -161 -923 -344 l-99 -64 734 -734 c403
-403 734 -733 735 -733 2 0 3 425 3 945 l0 945 -177 -1 c-98 -1 -221 -7 -273
-14z"/>
<path d="M629 3813 c-309 -322 -516 -724 -601 -1168 -29 -158 -37 -503 -13
-670 51 -369 186 -708 405 -1015 37 -52 86 -115 108 -140 l41 -45 818 817 818
818 -746 746 -745 745 -85 -88z"/>
<path d="M1696 1491 c-551 -551 -916 -923 -912 -930 4 -6 37 -35 74 -64 333
-264 702 -423 1117 -482 117 -17 423 -20 545 -5 524 64 1027 318 1379 698 264
284 449 618 540 975 51 197 63 289 68 515 l5 212 -948 0 -949 0 -919 -919z"/>
</g>
</svg>
